<svg width="360" height="360" viewBox="0 0 360 360" fill="none" xmlns="http://www.w3.org/2000/svg">
  <rect width="360" height="360" rx="24" fill="white"/>
  <rect x="28" y="28" width="304" height="304" rx="12" fill="#F7F8FB"/>
  <g fill="#252832">
    <rect x="48" y="48" width="74" height="74" rx="8"/>
    <rect x="238" y="48" width="74" height="74" rx="8"/>
    <rect x="48" y="238" width="74" height="74" rx="8"/>
    <rect x="66" y="66" width="38" height="38" rx="4" fill="white"/>
    <rect x="256" y="66" width="38" height="38" rx="4" fill="white"/>
    <rect x="66" y="256" width="38" height="38" rx="4" fill="white"/>
    <rect x="150" y="54" width="28" height="28"/>
    <rect x="192" y="54" width="18" height="58"/>
    <rect x="146" y="104" width="70" height="18"/>
    <rect x="146" y="150" width="28" height="28"/>
    <rect x="188" y="144" width="42" height="18"/>
    <rect x="246" y="146" width="28" height="28"/>
    <rect x="286" y="144" width="18" height="70"/>
    <rect x="150" y="194" width="70" height="20"/>
    <rect x="238" y="198" width="28" height="28"/>
    <rect x="144" y="238" width="22" height="74"/>
    <rect x="184" y="238" width="54" height="22"/>
    <rect x="260" y="250" width="52" height="22"/>
    <rect x="190" y="284" width="20" height="28"/>
    <rect x="230" y="286" width="28" height="28"/>
    <rect x="286" y="286" width="26" height="26"/>
  </g>
  <circle cx="180" cy="180" r="36" fill="#EC4F4F"/>
  <path d="M163 184C163 173 171 165 180 165C189 165 197 173 197 184C197 195 189 203 180 203C171 203 163 195 163 184Z" fill="white"/>
  <path d="M153 211C158 200 168 194 180 194C192 194 202 200 207 211" stroke="white" stroke-width="10" stroke-linecap="round"/>
</svg>
